<?xml version="1.0" encoding="utf-8"?>
<!-- Generator: Adobe Illustrator 22.0.1, SVG Export Plug-In . SVG Version: 6.00 Build 0)  -->
<svg version="1.1" id="Layer_1" xmlns="http://www.w3.org/2000/svg" xmlns:xlink="http://www.w3.org/1999/xlink" x="0px" y="0px"
	 viewBox="0 0 123.5 65.4" style="enable-background:new 0 0 123.5 65.4;" xml:space="preserve">
<style type="text/css">
	.st0{fill:#17355E;}
	.st1{fill:#DF4841;}
	.st2{fill:#FFFFFF;stroke:#FFFFFF;stroke-width:0.418;stroke-miterlimit:10;}
	.st3{fill:#173964;}
	.st4{fill:#75CDDC;}
</style>
<g>
	<path class="st0" d="M105,20.1L103.6,39c0,1.1,1.2,1.6,2,0.9l17.4-17.9c0.2-0.2,0.4-0.5,0.4-0.9V7.1c0-0.6-0.7-1-1.2-0.6
		l-16.8,12.7C105.2,19.4,105,19.7,105,20.1z"/>
	<path class="st0" d="M1.7,7.7l105.7,11.6l15.4-10.8c1.2-0.9,0.6-2.8-0.9-2.9L41.5,0c-1-0.1-1.9,0-2.8,0.2L1.7,7.7z"/>
	<g>
		<path class="st1" d="M103.8,40.7L1.9,26.9C0.8,26.8,0,25.9,0,24.7V9.8c0-1.3,1.1-2.4,2.5-2.2l101.9,10.7c1.1,0.1,2,1.1,2,2.2v17.9
			C106.3,39.8,105.1,40.8,103.8,40.7z"/>
	</g>
	<polygon class="st0" points="65.9,33 31.6,28.1 31.6,12.8 65.9,16.5 	"/>
	<path class="st0" d="M99.5,25.9l-26.4-3c-0.2,0-0.3-0.2-0.3-0.3v-1.5c0-0.2,0.2-0.3,0.4-0.3l26.4,2.8c0.2,0,0.3,0.2,0.3,0.3v1.7
		C99.8,25.8,99.7,25.9,99.5,25.9z"/>
	<path class="st0" d="M99.5,29.2l-26.4-3c-0.2,0-0.3-0.2-0.3-0.3v-1.5c0-0.2,0.2-0.3,0.4-0.3l26.4,2.8c0.2,0,0.3,0.2,0.3,0.3v1.7
		C99.8,29,99.7,29.2,99.5,29.2z"/>
	<path class="st0" d="M99.5,32.5l-26.4-3c-0.2,0-0.3-0.2-0.3-0.3v-1.5c0-0.2,0.2-0.3,0.4-0.3l26.4,2.8c0.2,0,0.3,0.2,0.3,0.3v1.7
		C99.8,32.3,99.7,32.5,99.5,32.5z"/>
	<path class="st0" d="M2.3,25.1c-0.2,0-0.2-0.3,0-0.3C8.8,25,27,25.6,47.2,28c20.9,2.5,48,8.5,55.8,10.4c0.2,0,0.1,0.3-0.1,0.3
		L2.3,25.1z"/>
	<path class="st0" d="M14.3,19.6l-6.5-0.5c-0.1,0-0.2-0.1-0.2-0.2l0-2.1c0-0.1,0.1-0.2,0.2-0.2l6.5,0.5c0.1,0,0.2,0.1,0.2,0.2l0,2.1
		C14.5,19.6,14.4,19.6,14.3,19.6z"/>
	<g>
		<g>
			<path class="st0" d="M23.8,18.1l0,0.5c0,0,0,0.1,0,0.1c0.3,0.4,0.5,0.9,0.4,1.5c-0.2,0.7-0.8,1.2-1.5,1.1c-1-0.1-1.7-1-1.7-1.9
				c0-0.5,0.3-0.8,0.6-1.1c0,0,0,0,0-0.1l0-0.5c0-0.1-0.1-0.1-0.1-0.1c-0.7,0.3-1.3,1.1-1.2,2.1c0.1,1,0.8,1.9,1.8,2.1
				c1.3,0.4,2.5-0.5,2.7-1.8c0.1-0.8-0.3-1.6-0.9-2C23.9,18,23.8,18,23.8,18.1z"/>
			<path class="st0" d="M22.6,19.4L22.6,19.4c-0.2,0-0.4-0.2-0.4-0.4v-2.2c0-0.2,0.2-0.4,0.4-0.4l0,0c0.2,0,0.4,0.2,0.4,0.4V19
				C23,19.3,22.9,19.4,22.6,19.4z"/>
		</g>
	</g>
	<g>
		<g>
			<path class="st2" d="M37.3,18.8l-0.4,0l-0.3-0.3l0.3-0.3l0.9,0.1L37.3,18.8z M38,18.4l-0.1,3.1l-0.3,0l-0.3-0.3l0.1-2.3L38,18.4z
				 M37.5,24.8l-0.2-0.3l0.1-2.7l0.3-0.3l0.3,0l-0.1,2.9L37.5,24.8z"/>
			<path class="st2" d="M40.4,25l0.1-2.9l0.3-0.3l0.3,0.3L41,24.5L40.4,25z M43.5,25.5l-3-0.4l0.6-0.5l2.5,0.3l0.3,0.3L43.5,25.5z
				 M43.9,22.1l-0.3,0.3l-2.5-0.3l-0.3-0.3l0.3-0.3l2.5,0.2L43.9,22.1z M41.3,18.6l2.4,0.2l0.3,0.3l-0.3,0.2l-2.5-0.2L41,18.8
				L41.3,18.6z M44.4,19.5l-0.1,2.3l-0.3,0.3l-0.3-0.3l0.1-2.4l0.2-0.2L44.4,19.5z"/>
			<path class="st2" d="M46,20.3l0.8,0.1l0,0.8L46,21.1L46,20.3z M46,23.1l0.8,0.1l0,0.8l-0.8-0.1L46,23.1z"/>
			<path class="st2" d="M48.8,19.1l0.2,0.3l-0.1,2.9l-0.3,0.3l-0.3,0l0.1-3.1L48.8,19.1z M51.8,22.9l-0.3,0.3L49,23l-0.3-0.3
				l0.3-0.3l2.5,0.3L51.8,22.9z M52.3,19.8l-0.1,3.2l-0.3,0l-0.3-0.3l0.1-2.9l0.2-0.2L52.3,19.8z M51.8,26.5l-0.2-0.3l0.1-2.9L52,23
				l0.3,0l-0.1,3.1L51.8,26.5z"/>
			<path class="st2" d="M54.9,20.3l-0.1,2.5l-0.3,0.3l-0.3,0l0.1-3.4L54.9,20.3z M57.5,20.5L55,20.3l-0.5-0.6l3,0.3l0.3,0.4
				L57.5,20.5z M57.7,23.6l-0.3,0.3l-2.5-0.3l-0.3-0.3l0.3-0.3l2.5,0.3L57.7,23.6z M54.6,26.5l0.3-0.3l2.5,0.3l0.3,0.3l-0.3,0.3
				l-2.5-0.3L54.6,26.5z M57.7,26.8l-0.2-0.3l0.1-2.5l0.3-0.3l0.3,0L58,26.5L57.7,26.8z"/>
		</g>
	</g>
</g>
<g>
	<path class="st3" d="M25.2,46.9C14,46.9,5,43.9,5,40.2v6.3c0,3.5,9.3,6.4,20.2,6.4s20.2-2.9,20.2-6.4v-6.3
		C45.4,43.9,36.4,46.9,25.2,46.9"/>
	<path class="st3" d="M25.2,53.5c-9.7,0-17.9-2.3-20.2-5.3v10.3c0,3.7,9,6.7,20.2,6.7s20.2-3,20.2-6.7V48.2
		C43.1,51.2,34.9,53.5,25.2,53.5"/>
	<path class="st3" d="M35.3,41.1c1.7,0,2.8-0.6,2.8-1s-1.1-0.9-2.8-0.9s-2.8,0.6-2.8,0.9C32.5,40.5,33.6,41.2,35.3,41.1"/>
	<path class="st3" d="M15.1,41.1c1.7,0,2.8-0.6,2.8-1s-1.1-0.9-2.8-0.9s-2.8,0.6-2.8,0.9S13.4,41.1,15.1,41.1"/>
	<path class="st3" d="M6.7,40.2L6.7,40.2c0-0.1,0.2-0.2,0.3-0.2c0.1,0,0.2,0.1,0.2,0.2l0,0c0,0.1-0.1,0.2-0.2,0.2c0,0,0,0,0,0l0,0
		C6.8,40.4,6.7,40.3,6.7,40.2L6.7,40.2 M7,39.2c0.1-0.1,0.2-0.1,0.3,0c0.1,0.1,0.1,0.2,0.1,0.3c0,0.1-0.1,0.1-0.2,0.1
		c0,0-0.1,0-0.1,0C6.9,39.5,6.9,39.4,7,39.2C6.9,39.2,7,39.2,7,39.2 M7.7,38.4c0.1-0.1,0.2-0.1,0.3,0s0.1,0.2,0,0.3l0,0
		c0,0.1-0.1,0.1-0.2,0.1c-0.1,0-0.2-0.1-0.2-0.2C7.6,38.5,7.6,38.5,7.7,38.4 M8.1,39.9C8.1,39.9,8,40,7.9,40c0,0-0.1,0-0.1,0
		c-0.1-0.1-0.2-0.2-0.1-0.3c0,0,0,0,0,0c0-0.1,0.2-0.2,0.3-0.2c0,0,0,0,0,0C8.1,39.6,8.2,39.7,8.1,39.9C8.1,39.8,8.1,39.8,8.1,39.9
		 M8.4,38.9c0.1-0.1,0.2-0.1,0.3,0c0.1,0.1,0.1,0.2,0,0.3c0,0-0.1,0-0.1,0c-0.1,0-0.1,0-0.2-0.1C8.3,39,8.3,38.9,8.4,38.9
		C8.4,38.8,8.4,38.8,8.4,38.9 M8.4,37.8c0.1-0.1,0.3,0,0.3,0.1c0,0,0,0,0,0c0.1,0.1,0,0.2-0.1,0.3c0,0,0,0,0,0H8.6
		c-0.1,0-0.2,0-0.2-0.1C8.4,38,8.4,37.9,8.4,37.8 M9.2,38.3c0.1-0.1,0.3,0,0.3,0.1c0.1,0.1,0,0.3-0.1,0.3H9.3c-0.1,0-0.2,0-0.2-0.1
		C9.1,38.5,9.1,38.4,9.2,38.3C9.2,38.3,9.2,38.3,9.2,38.3 M9.3,37.4c0.1-0.1,0.3,0,0.3,0.1c0.1,0.1,0,0.2-0.1,0.3c0,0,0,0-0.1,0H9.4
		c-0.1,0-0.2,0-0.2-0.1C9.1,37.6,9.2,37.5,9.3,37.4 M10.1,37.9c0.1,0,0.3,0,0.3,0.2c0,0.1,0,0.2-0.1,0.3h-0.1c-0.1,0-0.1,0-0.2-0.1
		C9.9,38.1,10,37.9,10.1,37.9C10.1,37.9,10.1,37.9,10.1,37.9 M10.2,37c0.1,0,0.3,0,0.3,0.1s0,0.3-0.1,0.3h-0.1
		c-0.1,0-0.2-0.1-0.2-0.2C10,37.2,10.1,37,10.2,37 M11,37.5c0.1,0,0.3,0,0.3,0.1c0,0,0,0,0,0c0,0.1,0,0.3-0.1,0.3c0,0,0,0,0,0h-0.1
		c-0.1,0-0.2,0-0.2-0.1C10.8,37.7,10.9,37.6,11,37.5C11,37.5,11,37.5,11,37.5 M11.1,36.7c0.1,0,0.3,0.1,0.3,0.2c0,0.1,0,0.2-0.1,0.3
		h-0.1c-0.1,0-0.2-0.1-0.2-0.2C10.9,36.9,11,36.7,11.1,36.7 M15.1,38.6c1.7,0,3.5,0.5,3.5,1.6c0,1-1.8,1.6-3.4,1.6s-3.5-0.5-3.5-1.6
		S13.4,38.6,15.1,38.6 M11.9,37.2c0.1,0,0.3,0,0.3,0.1c0,0,0,0,0,0c0,0.1,0,0.3-0.2,0.3c0,0,0,0,0,0H12c-0.1,0-0.2-0.1-0.2-0.2
		C11.7,37.4,11.8,37.3,11.9,37.2C11.9,37.2,11.9,37.2,11.9,37.2 M12,36.4c0.1,0,0.3,0,0.3,0.2c0,0.1-0.1,0.2-0.2,0.3h-0.1
		c-0.1,0-0.2-0.1-0.2-0.2C11.8,36.6,11.9,36.5,12,36.4 M12.9,37c0.1,0,0.3,0,0.3,0.2c0,0.1,0,0.3-0.2,0.3l0,0h-0.1
		c-0.1,0-0.2-0.1-0.2-0.2C12.6,37.1,12.7,37,12.9,37 M12.9,36.2c0.1,0,0.2,0,0.3,0.2c0,0,0,0,0,0c0,0.1,0,0.3-0.2,0.3c0,0,0,0,0,0
		l0,0c-0.1,0-0.2-0.1-0.2-0.2C12.7,36.3,12.8,36.2,12.9,36.2C12.9,36.2,12.9,36.2,12.9,36.2 M13.8,36.8c0.1,0,0.3,0.1,0.3,0.2
		c0,0.1,0,0.2-0.2,0.3c0,0,0,0,0,0h-0.1c-0.1,0-0.2-0.1-0.2-0.2C13.6,36.9,13.6,36.8,13.8,36.8C13.8,36.7,13.8,36.7,13.8,36.8
		 M13.8,35.9c0.1,0,0.3,0.1,0.3,0.2c0,0.1,0,0.2-0.2,0.3c0,0,0,0,0,0l0,0c-0.1,0-0.2-0.1-0.2-0.2C13.7,36.1,13.8,36,13.8,35.9
		 M14.8,36.5c0.1,0,0.2,0.1,0.2,0.2c0,0.1-0.1,0.3-0.2,0.3h-0.1c-0.1,0-0.2-0.1-0.2-0.2C14.5,36.7,14.6,36.6,14.8,36.5
		C14.7,36.6,14.7,36.6,14.8,36.5 M14.8,35.8c0.1,0,0.3,0.1,0.3,0.2c0,0.1-0.1,0.3-0.2,0.3l0,0c-0.1,0-0.2-0.1-0.2-0.2
		C14.6,35.9,14.7,35.8,14.8,35.8 M15.7,36.4c0.1,0,0.2,0,0.3,0.2c0,0,0,0,0,0c0,0.1-0.1,0.2-0.2,0.3l0,0c-0.1,0-0.2-0.1-0.2-0.2
		C15.5,36.5,15.6,36.4,15.7,36.4 M15.8,35.6c0.1,0,0.2,0.1,0.3,0.2c0,0.1-0.1,0.2-0.2,0.3l0,0c-0.1,0-0.2-0.1-0.2-0.2
		C15.6,35.7,15.7,35.6,15.8,35.6C15.8,35.6,15.8,35.6,15.8,35.6 M16.7,36.2c0.1,0,0.2,0.1,0.2,0.2c0,0.1-0.1,0.2-0.2,0.2l0,0
		c-0.1,0-0.2-0.1-0.2-0.2C16.5,36.4,16.6,36.3,16.7,36.2 M16.8,35.4c0.1,0,0.3,0,0.3,0.2c0,0.1,0,0.3-0.2,0.3c0,0,0,0-0.1,0l0,0
		c-0.1,0-0.2-0.2-0.2-0.3C16.7,35.5,16.8,35.5,16.8,35.4 M17.8,36.1c0.1,0,0.2,0.1,0.3,0.2c0,0.1-0.1,0.2-0.2,0.3l0,0
		c-0.1,0-0.2-0.1-0.2-0.2C17.6,36.3,17.7,36.1,17.8,36.1C17.8,36.1,17.8,36.1,17.8,36.1 M17.8,35.3c0.1,0,0.2,0.1,0.3,0.2
		c0,0.1-0.1,0.2-0.2,0.3l0,0c-0.1,0-0.2-0.1-0.2-0.2C17.6,35.5,17.7,35.3,17.8,35.3 M18.7,36c0.1,0,0.3,0,0.3,0.2s0,0.3-0.2,0.3
		c0,0-0.1,0-0.1,0l0,0c-0.1,0-0.2-0.2-0.2-0.3C18.6,36.1,18.7,36,18.7,36 M18.8,35.2c0.1,0,0.2,0.1,0.3,0.2c0,0.1-0.1,0.2-0.2,0.3
		l0,0c-0.1,0-0.2-0.1-0.2-0.2C18.6,35.3,18.7,35.2,18.8,35.2 M19.7,35.9c0.1,0,0.2,0.1,0.3,0.2c0,0,0,0,0,0c0,0.1-0.1,0.2-0.2,0.3
		l0,0c-0.1,0-0.2-0.1-0.2-0.2C19.5,36,19.6,35.9,19.7,35.9C19.7,35.9,19.7,35.9,19.7,35.9 M19.8,35.1c0.1,0,0.2,0.1,0.3,0.2
		c0,0.1-0.1,0.2-0.2,0.3l0,0c-0.1,0-0.2-0.2-0.2-0.3C19.6,35.2,19.7,35.1,19.8,35.1 M20.4,35.9c0.1,0,0.3,0.1,0.3,0.2
		c0,0.1-0.1,0.3-0.2,0.3c0,0-0.1,0-0.1,0l0,0c-0.1,0-0.2-0.1-0.2-0.2c0,0,0,0,0,0C20.2,36,20.3,35.9,20.4,35.9
		C20.4,35.9,20.4,35.9,20.4,35.9 M20.4,35.1c0.1,0,0.2,0.1,0.3,0.2c0,0.1-0.1,0.2-0.2,0.3c0,0,0,0,0,0l0,0c-0.1,0-0.2-0.1-0.2-0.2
		C20.2,35.2,20.3,35.1,20.4,35.1C20.4,35.1,20.4,35.1,20.4,35.1 M21.4,35.8c0.1,0,0.2,0.1,0.2,0.2c0,0,0,0,0,0
		c0,0.1-0.1,0.2-0.2,0.3l0,0c-0.1,0-0.2-0.1-0.2-0.2C21.1,35.9,21.2,35.8,21.4,35.8C21.4,35.8,21.4,35.8,21.4,35.8 M21.4,35
		c0.1,0,0.2,0.1,0.3,0.2c0,0.1-0.1,0.2-0.2,0.2c0,0,0,0,0,0l0,0c-0.1,0-0.2-0.1-0.2-0.2C21.1,35.1,21.2,35,21.4,35 M22.3,35.7
		c0.1,0,0.2,0.1,0.2,0.2c0,0,0,0,0,0c0,0.1-0.1,0.2-0.2,0.3l0,0c-0.1,0-0.2-0.1-0.2-0.2C22.1,35.9,22.2,35.8,22.3,35.7
		C22.3,35.7,22.3,35.7,22.3,35.7 M22.3,34.9c0.1,0,0.2,0.1,0.2,0.2c0,0.1-0.1,0.2-0.2,0.2l0,0c-0.1,0-0.2-0.1-0.2-0.2
		C22.1,35.1,22.2,35,22.3,34.9 M23.3,35.7c0.1,0,0.2,0.1,0.2,0.2c0,0,0,0,0,0c0,0.1-0.1,0.2-0.2,0.2l0,0c-0.1,0-0.3-0.1-0.3-0.2
		c0,0,0,0,0,0C23,35.8,23.1,35.7,23.3,35.7C23.2,35.7,23.2,35.7,23.3,35.7 M23.2,34.9c0.1,0,0.3,0.1,0.3,0.2s-0.1,0.3-0.2,0.3
		c0,0-0.1,0-0.1,0c-0.1,0-0.2-0.1-0.2-0.2C23,35,23.1,34.9,23.2,34.9C23.2,34.9,23.2,34.9,23.2,34.9 M24.2,35.7
		c0.1,0,0.2,0.1,0.2,0.2c0,0.1-0.1,0.2-0.2,0.2l0,0c-0.1,0-0.2-0.1-0.2-0.2C23.9,35.8,24,35.7,24.2,35.7 M24.2,34.9
		c0.1,0,0.3,0.1,0.3,0.2s-0.1,0.3-0.2,0.3c0,0-0.1,0-0.1,0l0,0c-0.1,0-0.3-0.1-0.3-0.2C23.9,35,24,34.9,24.2,34.9
		C24.1,34.9,24.1,34.9,24.2,34.9 M25.1,34.9c0.1,0,0.2,0.1,0.2,0.2c0,0.1-0.1,0.2-0.2,0.2s-0.2-0.1-0.2-0.2c0,0,0,0,0,0
		C24.9,35,25,34.9,25.1,34.9C25.1,34.9,25.1,34.9,25.1,34.9 M25.2,36.1c-0.1,0-0.2-0.1-0.2-0.2c0,0,0,0,0,0c0-0.1,0.1-0.2,0.2-0.2
		c0.1,0,0.3,0.1,0.3,0.2S25.4,36.1,25.2,36.1C25.2,36.1,25.2,36.1,25.2,36.1 M26.1,34.9c0.1,0,0.3,0.1,0.3,0.2s-0.1,0.3-0.2,0.3
		c0,0-0.1,0-0.1,0l0,0c-0.1,0-0.2-0.1-0.2-0.2C25.9,35,26,34.9,26.1,34.9C26.1,34.9,26.1,34.9,26.1,34.9 M26.1,36.1L26.1,36.1
		c-0.1,0-0.2-0.1-0.2-0.2c0,0,0,0,0,0c0-0.1,0.1-0.2,0.2-0.2c0.1,0,0.2,0.1,0.2,0.2C26.4,36,26.3,36.1,26.1,36.1L26.1,36.1
		 M27.1,34.9c0.1,0,0.2,0.1,0.2,0.2c0,0,0,0,0,0c0,0.1-0.1,0.2-0.2,0.2l0,0c-0.1,0-0.2-0.1-0.2-0.2c0,0,0,0,0,0
		C26.8,35,26.9,34.9,27.1,34.9C27.1,34.9,27.1,34.9,27.1,34.9 M27.1,36.1L27.1,36.1c-0.1,0-0.2-0.1-0.2-0.2c0,0,0,0,0,0
		c0-0.1,0.1-0.2,0.2-0.2c0,0,0,0,0,0c0.1,0,0.2,0.1,0.2,0.2c0,0,0,0,0,0C27.3,36,27.2,36.1,27.1,36.1 M28,34.9
		c0.1,0,0.2,0.1,0.2,0.2c0,0.1-0.1,0.2-0.2,0.2l0,0c-0.1,0-0.2-0.1-0.2-0.2c0,0,0,0,0,0C27.8,35,27.9,34.9,28,34.9 M28,36.2L28,36.2
		c-0.1,0-0.2-0.1-0.2-0.3c0-0.1,0.1-0.2,0.2-0.2c0.1,0,0.2,0.1,0.2,0.2c0,0,0,0,0,0C28.2,36.1,28.1,36.2,28,36.2
		C28,36.2,28,36.2,28,36.2 M29,35L29,35c0.1,0,0.2,0.1,0.2,0.3c0,0.1-0.1,0.2-0.2,0.2l0,0c-0.1,0-0.3-0.1-0.3-0.2s0.1-0.3,0.2-0.3
		C28.9,35,28.9,35,29,35 M29,36.3L29,36.3c-0.1,0-0.2-0.1-0.2-0.3c0-0.1,0.1-0.2,0.2-0.2c0.1,0,0.2,0.1,0.2,0.3
		C29.2,36.1,29.1,36.2,29,36.3 M29.9,35c0.1,0,0.2,0.1,0.2,0.2c0,0,0,0,0,0c0,0.1-0.1,0.2-0.2,0.2l0,0c-0.1,0-0.2-0.1-0.2-0.3
		C29.7,35.1,29.8,35,29.9,35C29.9,35,29.9,35,29.9,35 M30,36.3L30,36.3c-0.1,0-0.2-0.1-0.2-0.3c0-0.1,0.1-0.2,0.2-0.2
		c0.1,0,0.2,0.1,0.2,0.3c0,0,0,0,0,0C30.1,36.2,30.1,36.3,30,36.3 M30.9,35.1c0.1,0,0.2,0.1,0.2,0.3c0,0.1-0.1,0.2-0.2,0.2l0,0
		c-0.1,0-0.2-0.1-0.2-0.3c0,0,0,0,0,0C30.6,35.2,30.7,35.1,30.9,35.1 M30.9,36.4L30.9,36.4c-0.1,0-0.2-0.1-0.2-0.2c0,0,0,0,0,0
		c0-0.1,0.1-0.3,0.2-0.3s0.3,0.1,0.3,0.2c0,0,0,0.1,0,0.1C31.1,36.3,31,36.4,30.9,36.4 M31.8,35.2c0.1,0,0.2,0.2,0.2,0.3
		c0,0.1-0.1,0.2-0.2,0.2l0,0c-0.1,0-0.2-0.1-0.2-0.3C31.6,35.3,31.7,35.2,31.8,35.2C31.9,35.2,31.9,35.2,31.8,35.2 M32.1,36.3
		c0,0.1-0.1,0.2-0.2,0.2l0,0c-0.1,0-0.2-0.1-0.2-0.2c0,0,0,0,0,0c0-0.1,0.1-0.2,0.3-0.2c0,0,0,0,0,0C32.1,36,32.2,36.1,32.1,36.3
		 M35.4,38.6c1.7,0,3.5,0.5,3.5,1.6c0,1-1.9,1.6-3.6,1.6s-3.5-0.5-3.5-1.6S33.6,38.6,35.4,38.6 M32.7,35.3c0.1,0,0.2,0.1,0.2,0.2
		c0,0,0,0,0,0c0,0.1-0.1,0.2-0.2,0.2l0,0c-0.1,0-0.2-0.1-0.2-0.3C32.5,35.4,32.6,35.3,32.7,35.3 M33,36.4c0,0.1-0.1,0.2-0.2,0.2l0,0
		c-0.1,0-0.2-0.1-0.2-0.3c0,0,0,0,0,0c0-0.1,0.1-0.2,0.3-0.2C33,36.1,33,36.3,33,36.4C33,36.4,33,36.4,33,36.4 M33.7,35.4
		c0.1,0,0.2,0.2,0.2,0.3c0,0.1-0.1,0.2-0.2,0.2l0,0c-0.1,0-0.2-0.2-0.2-0.3C33.6,35.5,33.7,35.4,33.7,35.4 M34,36.5
		c0,0.1-0.1,0.2-0.2,0.2l0,0c-0.1,0-0.2-0.1-0.2-0.3c0-0.1,0.1-0.2,0.3-0.2c0,0,0,0,0,0l0,0C34,36.3,34.1,36.4,34,36.5 M34.8,35.6
		c0.1,0,0.2,0.1,0.2,0.2c0,0,0,0,0,0c0,0.1-0.1,0.2-0.2,0.2l0,0c-0.1,0-0.2-0.2-0.2-0.3C34.5,35.7,34.7,35.6,34.8,35.6
		C34.8,35.6,34.8,35.6,34.8,35.6 M35.1,36.7c0,0.1-0.1,0.2-0.2,0.2l0,0c-0.1,0-0.2-0.1-0.2-0.3c0-0.1,0.1-0.2,0.3-0.2
		C35,36.4,35.1,36.5,35.1,36.7C35.1,36.6,35.1,36.7,35.1,36.7 M35.8,35.8c0.1,0,0.2,0.2,0.2,0.3c0,0.1-0.1,0.2-0.2,0.2l0,0
		c-0.1,0-0.2-0.2-0.2-0.3C35.6,35.8,35.7,35.7,35.8,35.8 M35.8,36.9c0,0.1-0.1,0.2-0.2,0.2h0c-0.1,0-0.2-0.1-0.2-0.3c0,0,0,0,0,0
		c0-0.1,0.2-0.2,0.3-0.2C35.8,36.7,35.8,36.8,35.8,36.9 M36.8,37.1c0,0.1-0.1,0.2-0.2,0.2h0c-0.1,0-0.2-0.2-0.2-0.3
		c0-0.1,0.2-0.2,0.3-0.2C36.7,36.8,36.8,36.9,36.8,37.1C36.8,37.1,36.8,37.1,36.8,37.1 M36.2,36.2c0.1-0.1,0.2-0.2,0.3-0.1
		c0.1,0,0.1,0.1,0.1,0.2c0,0.1-0.1,0.2-0.2,0.2h-0.1C36.3,36.4,36.2,36.3,36.2,36.2C36.2,36.2,36.2,36.2,36.2,36.2 M37.7,37.3
		c0,0.1-0.1,0.2-0.2,0.2h-0.1c-0.1-0.1-0.2-0.2-0.1-0.3c0-0.1,0.1-0.2,0.2-0.1C37.6,37.1,37.7,37.2,37.7,37.3 M37.1,36.4
		c0-0.1,0.1-0.2,0.3-0.2c0,0,0,0,0,0c0.1,0,0.2,0.1,0.2,0.3c0,0,0,0,0,0c0,0.1-0.1,0.2-0.2,0.2h-0.1C37.2,36.7,37.1,36.5,37.1,36.4
		C37.1,36.4,37.1,36.4,37.1,36.4 M38,36.6c0-0.1,0.2-0.2,0.3-0.2c0.1,0,0.2,0.2,0.2,0.3l0,0c0,0.1-0.1,0.2-0.2,0.2h-0.1
		C38.1,36.9,38,36.8,38,36.6C38,36.7,38,36.6,38,36.6 M38.6,37.6c0,0.1-0.1,0.2-0.2,0.2h-0.1c-0.1,0-0.2-0.2-0.1-0.3
		c0-0.1,0.2-0.2,0.3-0.1C38.6,37.4,38.6,37.5,38.6,37.6C38.6,37.6,38.6,37.6,38.6,37.6 M39,36.9c0-0.1,0.2-0.2,0.3-0.2c0,0,0,0,0,0
		c0.1,0,0.2,0.2,0.2,0.3c0,0,0,0,0,0c0,0.1-0.1,0.2-0.2,0.2h-0.1C39,37.1,39,37,39,36.9 M39.5,37.9c0,0.1-0.1,0.2-0.2,0.2h-0.1
		c-0.1,0-0.2-0.2-0.1-0.3c0,0,0,0,0,0c0-0.1,0.2-0.2,0.3-0.1C39.5,37.6,39.6,37.7,39.5,37.9 M39.9,37.2c0-0.1,0.2-0.2,0.3-0.1
		c0,0,0,0,0,0c0.1,0,0.2,0.2,0.1,0.3c0,0,0,0,0,0c0,0.1-0.1,0.2-0.2,0.1H40C39.9,37.5,39.8,37.3,39.9,37.2
		C39.9,37.2,39.9,37.2,39.9,37.2 M40.4,38.2c0,0.1-0.1,0.1-0.2,0.1h-0.1c-0.1,0-0.2-0.2-0.1-0.3c0-0.1,0.2-0.2,0.3-0.1
		C40.4,37.9,40.4,38,40.4,38.2 M40.7,37.5c0.1-0.1,0.2-0.1,0.3-0.1c0.1,0,0.2,0.2,0.1,0.3c0,0,0,0,0,0c0,0.1-0.1,0.1-0.2,0.1h-0.1
		C40.7,37.8,40.6,37.6,40.7,37.5 M41.2,38.6c0,0.1-0.1,0.1-0.2,0.1c0,0-0.1,0-0.1,0c-0.1-0.1-0.2-0.2-0.1-0.3
		c0.1-0.1,0.2-0.2,0.3-0.1C41.2,38.4,41.3,38.5,41.2,38.6C41.2,38.6,41.2,38.6,41.2,38.6 M41.5,37.9c0.1-0.1,0.2-0.2,0.3-0.1
		c0,0,0,0,0.1,0c0.1,0.1,0.1,0.2,0.1,0.3c0,0.1-0.1,0.1-0.2,0.1c0,0-0.1,0-0.1,0C41.5,38.2,41.5,38.1,41.5,37.9
		C41.6,38,41.6,38,41.5,37.9 M42,39.1c0,0.1-0.1,0.1-0.2,0.1c0,0-0.1,0-0.1,0c-0.1-0.1-0.1-0.2,0-0.3c0.1-0.1,0.2-0.1,0.3,0
		C42.1,39,42.1,39.1,42,39.1C42,39.2,42,39.2,42,39.1 M42.3,39.6c0.1,0,0.3,0,0.3,0.2c0,0.1,0,0.2-0.1,0.3c0,0-0.1,0-0.1,0
		c-0.1,0-0.2-0.1-0.2-0.1C42.2,39.7,42.2,39.6,42.3,39.6 M42.3,38.5c0.1-0.1,0.2-0.1,0.3,0c0,0,0,0,0,0c0.1,0.1,0.1,0.2,0,0.3
		c0,0,0,0,0,0c0,0.1-0.1,0.1-0.2,0.1c-0.1,0-0.1,0-0.2,0C42.3,38.8,42.3,38.6,42.3,38.5 M43,39.2c0.1-0.1,0.2-0.1,0.3,0c0,0,0,0,0,0
		c0.1,0.1,0,0.3-0.1,0.3c0,0-0.1,0-0.1,0c-0.1,0-0.1-0.1-0.2-0.2C42.9,39.3,42.9,39.1,43,39.2C43,39.1,43.1,39.1,43,39.2 M43.7,40.1
		L43.7,40.1L43.7,40.1L43.7,40.1c0,0.1-0.1,0.2-0.2,0.2c-0.1,0-0.2-0.1-0.2-0.2l0,0l0,0l0,0c0-0.1,0.1-0.2,0.2-0.2
		C43.6,39.9,43.7,40,43.7,40.1 M43.4,41.1c0,0.1-0.1,0.1-0.2,0.1c0,0-0.1,0-0.1,0C43,41.2,42.9,41,43,40.9c0.1-0.1,0.2-0.1,0.3-0.1
		c0,0,0,0,0,0C43.4,40.9,43.5,41.1,43.4,41.1C43.4,41.2,43.4,41.2,43.4,41.1 M42.7,41.9c0,0-0.1,0.1-0.2,0.1c-0.1,0-0.1-0.1-0.2-0.1
		c-0.1-0.1-0.1-0.2,0-0.3c0.1-0.1,0.2-0.1,0.3,0l0,0C42.9,41.6,42.9,41.8,42.7,41.9C42.8,41.9,42.8,41.9,42.7,41.9 M42.3,40.5
		c0.1-0.1,0.2-0.2,0.3-0.1c0.1,0.1,0.2,0.2,0.1,0.3c0,0,0,0,0,0c0,0.1-0.1,0.1-0.2,0.1c0,0-0.1,0-0.1,0
		C42.3,40.7,42.2,40.6,42.3,40.5 M42.1,41.5c0,0-0.1,0-0.2,0c-0.1,0-0.1,0-0.2-0.1c-0.1-0.1-0.1-0.2,0-0.3c0.1-0.1,0.2-0.1,0.3,0
		c0,0,0,0,0,0C42.1,41.2,42.1,41.3,42.1,41.5 M42,42.4h-0.1c-0.1,0-0.2,0-0.2-0.1c-0.1-0.1,0-0.3,0.1-0.3c0.1,0,0.2,0,0.3,0.2
		c0,0,0,0,0,0C42.1,42.3,42,42.4,42,42.4C41.9,42.5,41.9,42.5,42,42.4 M41.2,42h-0.1c-0.1,0-0.2,0-0.2-0.1c-0.1-0.1,0-0.3,0.1-0.3
		c0,0,0,0,0,0c0.1-0.1,0.3,0,0.3,0.1C41.3,41.8,41.3,41.9,41.2,42 M41.1,42.9L41.1,42.9c-0.2,0-0.3-0.1-0.3-0.1
		c-0.1-0.1,0-0.2,0.1-0.3c0,0,0,0,0,0c0.1-0.1,0.3,0,0.3,0.1C41.2,42.7,41.2,42.8,41.1,42.9 M40.3,42.4L40.3,42.4
		c-0.2,0-0.3-0.1-0.3-0.2c0-0.1,0.1-0.2,0.2-0.3c0.1-0.1,0.3,0,0.3,0.1c0,0,0,0,0,0C40.5,42.2,40.4,42.3,40.3,42.4 M40.2,43.2
		L40.2,43.2c-0.2,0-0.3-0.1-0.3-0.1c0-0.1,0-0.2,0.1-0.2c0.1,0,0.3,0.1,0.3,0.2C40.3,43.1,40.3,43.2,40.2,43.2 M39.4,42.8L39.4,42.8
		c-0.2,0-0.3-0.1-0.3-0.2c0-0.1,0-0.3,0.1-0.3c0,0,0,0,0,0c0.1,0,0.3,0,0.3,0.2C39.6,42.6,39.5,42.7,39.4,42.8 M39.3,43.6L39.3,43.6
		c-0.2,0-0.3-0.1-0.3-0.2c0-0.1,0-0.2,0.1-0.3c0,0,0,0,0,0c0.1,0,0.3,0,0.3,0.1c0,0,0,0,0,0C39.5,43.4,39.4,43.5,39.3,43.6 M38.5,43
		L38.5,43c-0.2,0-0.3-0.1-0.3-0.2c0-0.1,0-0.3,0.2-0.3c0.1,0,0.3,0,0.3,0.2C38.7,42.9,38.6,43,38.5,43C38.5,43,38.5,43,38.5,43
		 M38.3,43.9L38.3,43.9c-0.2,0-0.3-0.1-0.3-0.2c0-0.1,0-0.3,0.2-0.3c0.1,0,0.3,0,0.3,0.2S38.5,43.8,38.3,43.9 M37.5,43.3L37.5,43.3
		c-0.1,0-0.2-0.1-0.3-0.2c0-0.1,0.1-0.2,0.2-0.3c0.1,0,0.2,0.1,0.2,0.1C37.8,43.1,37.7,43.2,37.5,43.3
		C37.6,43.3,37.6,43.3,37.5,43.3 M37.5,44.1L37.5,44.1c-0.2,0-0.3-0.1-0.3-0.2c0-0.1,0.1-0.3,0.2-0.3c0.1,0,0.2,0,0.3,0.2
		c0,0,0,0,0,0C37.7,43.9,37.6,44.1,37.5,44.1 M36.6,43.5L36.6,43.5c-0.2,0-0.3-0.1-0.3-0.2c0-0.1,0.1-0.3,0.2-0.3
		c0.1,0,0.3,0.1,0.3,0.2C36.8,43.3,36.8,43.5,36.6,43.5 M36.5,44.3L36.5,44.3c-0.2,0-0.3-0.1-0.3-0.2c0-0.1,0.1-0.3,0.2-0.3
		c0.1,0,0.3,0,0.3,0.2c0,0,0,0,0,0C36.7,44.1,36.6,44.3,36.5,44.3 M35.7,43.7L35.7,43.7c-0.2,0-0.3-0.2-0.2-0.3
		c0-0.1,0.1-0.2,0.2-0.2c0.1,0,0.2,0,0.3,0.2c0,0,0,0,0,0C35.9,43.5,35.9,43.6,35.7,43.7 M35.6,44.5L35.6,44.5
		c-0.1,0-0.2-0.1-0.2-0.2c0-0.1,0-0.3,0.2-0.3c0.1,0,0.3,0,0.3,0.2c0,0,0,0,0,0C35.9,44.3,35.8,44.4,35.6,44.5
		C35.7,44.5,35.7,44.5,35.6,44.5 M34.8,43.8h-0.1c-0.1,0-0.2-0.1-0.2-0.2c0-0.1,0.1-0.3,0.2-0.3c0.1,0,0.2,0.1,0.3,0.2
		C35,43.7,34.9,43.8,34.8,43.8 M34.7,44.6L34.7,44.6c-0.1,0-0.2-0.2-0.2-0.3c0-0.1,0.1-0.2,0.2-0.2c0.1,0,0.2,0.1,0.3,0.2
		c0,0,0,0,0,0C34.9,44.5,34.9,44.6,34.7,44.6 M33.9,44L33.9,44c-0.1,0-0.2-0.1-0.2-0.2c0-0.1,0.1-0.2,0.2-0.2c0.1,0,0.2,0.1,0.2,0.2
		C34.1,43.8,34,44,33.9,44C33.9,44,33.9,44,33.9,44 M33.8,44.8L33.8,44.8c-0.1,0-0.2-0.2-0.2-0.3c0-0.1,0.1-0.2,0.2-0.2
		c0.1,0,0.3,0.1,0.3,0.2c0,0,0,0,0,0C34.1,44.6,34,44.8,33.8,44.8C33.9,44.8,33.9,44.8,33.8,44.8 M33,44.1L33,44.1
		c-0.1,0-0.2-0.1-0.2-0.2c0-0.1,0.1-0.2,0.2-0.3c0,0,0,0,0,0c0.1,0,0.2,0.1,0.3,0.2c0,0,0,0,0,0C33.2,44,33.2,44.1,33,44.1
		C33,44.1,33,44.1,33,44.1 M32.9,44.9L32.9,44.9c-0.1,0-0.2-0.1-0.2-0.2c0-0.1,0.1-0.2,0.2-0.3c0.1,0,0.2,0.1,0.3,0.2
		C33.2,44.8,33.1,44.9,32.9,44.9 M32.1,44.2L32.1,44.2c-0.1,0-0.2-0.1-0.2-0.2c0-0.1,0.1-0.2,0.3-0.2c0.1,0,0.2,0.1,0.2,0.2
		C32.3,44.1,32.3,44.2,32.1,44.2C32.1,44.2,32.1,44.2,32.1,44.2 M32.1,45L32.1,45c-0.1,0-0.2-0.2-0.2-0.3c0-0.1,0.1-0.2,0.2-0.2
		c0.1,0.1,0,0.2-0.1,0.3c0,0.1-0.1,0.2-0.2,0.3 M31,44.4L31,44.4c-0.1,0-0.2-0.1-0.2-0.2c0-0.1,0.1-0.2,0.2-0.2
		c0.1,0,0.2,0.1,0.2,0.2C31.2,44.3,31.1,44.4,31,44.4 M31,45.2L31,45.2c-0.1,0-0.2-0.1-0.2-0.2c0-0.1,0.1-0.2,0.2-0.3c0,0,0,0,0,0
		c0.1,0,0.2,0.1,0.2,0.2c0,0,0,0,0,0C31.2,45.1,31.1,45.2,31,45.2C31,45.2,31,45.2,31,45.2 M30,44.5L30,44.5c-0.1,0-0.2-0.1-0.2-0.2
		c0-0.1,0.1-0.2,0.2-0.2c0,0,0,0,0,0c0.1,0,0.2,0.1,0.3,0.2c0,0,0,0,0,0C30.2,44.4,30.1,44.5,30,44.5 M30,45.3L30,45.3
		c-0.1,0-0.2-0.1-0.2-0.2c0-0.1,0.1-0.2,0.2-0.3c0.1,0,0.2,0.2,0.2,0.3C30.1,45.2,30,45.3,30,45.3 M29.1,44.5L29.1,44.5
		c-0.1,0-0.2-0.1-0.2-0.2c0,0,0,0,0,0c0-0.1,0.2-0.2,0.3-0.2c0.1,0,0.2,0.1,0.2,0.2C29.3,44.4,29.2,44.6,29.1,44.5
		C29.1,44.6,29.1,44.6,29.1,44.5 M29,45.4L29,45.4c-0.1,0-0.2-0.1-0.2-0.2c0-0.1,0.1-0.3,0.2-0.3c0,0,0,0,0,0c0.1,0,0.2,0.1,0.3,0.2
		C29.3,45.2,29.2,45.3,29,45.4 M28.1,44.6L28.1,44.6c-0.1,0-0.2-0.1-0.2-0.2c0,0,0,0,0,0c0-0.1,0.1-0.2,0.2-0.2c0,0,0,0,0,0
		c0.1,0,0.2,0.1,0.2,0.2c0,0,0,0,0,0C28.4,44.5,28.3,44.6,28.1,44.6C28.1,44.6,28.1,44.6,28.1,44.6 M28.1,45.4L28.1,45.4
		c-0.1,0-0.2-0.1-0.2-0.2c0-0.1,0.1-0.2,0.2-0.2c0,0,0,0,0,0c0.1,0,0.2,0.1,0.2,0.2c0,0,0,0,0,0C28.4,45.3,28.3,45.4,28.1,45.4
		 M27.2,44.6L27.2,44.6c-0.1,0-0.2-0.1-0.2-0.2c0,0,0,0,0,0c0-0.1,0.1-0.2,0.2-0.3c0.1,0,0.2,0.1,0.3,0.2S27.4,44.6,27.2,44.6
		C27.2,44.6,27.2,44.6,27.2,44.6 M27.2,45.4L27.2,45.4c-0.1,0-0.2-0.1-0.2-0.2c0-0.1,0.1-0.2,0.2-0.2c0,0,0,0,0,0
		c0.1,0,0.2,0.1,0.3,0.2C27.5,45.3,27.4,45.4,27.2,45.4C27.2,45.4,27.2,45.4,27.2,45.4 M26.3,44.6L26.3,44.6c-0.1,0-0.2-0.1-0.2-0.2
		c0,0,0,0,0,0c0-0.1,0.1-0.2,0.2-0.2c0,0,0,0,0,0c0.1,0,0.2,0.1,0.2,0.2C26.6,44.5,26.5,44.6,26.3,44.6 M26.3,45.4L26.3,45.4
		c-0.1,0-0.2-0.2-0.2-0.3c0-0.1,0.1-0.2,0.2-0.2l0,0c0.1,0,0.3,0.1,0.3,0.2S26.6,45.4,26.3,45.4C26.4,45.4,26.4,45.4,26.3,45.4
		 M25.4,44.6L25.4,44.6c-0.1,0-0.2-0.1-0.2-0.2c0-0.1,0.1-0.2,0.2-0.2c0,0,0,0,0,0l0,0c0.1,0,0.3,0.1,0.3,0.2S25.6,44.6,25.4,44.6
		C25.5,44.6,25.5,44.6,25.4,44.6 M25.4,45.4c-0.1,0-0.2-0.1-0.2-0.2c0-0.1,0.1-0.2,0.2-0.2c0.1,0,0.2,0.1,0.2,0.2
		C25.7,45.3,25.6,45.4,25.4,45.4 M24.5,45.4L24.5,45.4c-0.1,0-0.2-0.1-0.2-0.2c0-0.1,0.1-0.2,0.2-0.2c0.1,0,0.2,0.1,0.2,0.2
		c0,0,0,0,0,0C24.7,45.3,24.6,45.4,24.5,45.4 M24.5,44.2c0.1,0,0.2,0.1,0.2,0.2s-0.1,0.2-0.2,0.2c0,0,0,0,0,0l0,0
		c-0.1,0-0.2-0.1-0.2-0.2C24.3,44.3,24.4,44.2,24.5,44.2 M23.6,45.4L23.6,45.4c-0.1,0-0.2-0.1-0.2-0.2c0,0,0,0,0,0
		c0-0.1,0.1-0.2,0.2-0.2c0,0,0,0,0,0c0.1,0,0.2,0.1,0.2,0.2C23.8,45.3,23.7,45.4,23.6,45.4C23.6,45.4,23.6,45.4,23.6,45.4
		 M23.6,44.1c0.1,0,0.2,0.1,0.2,0.2c0,0.1-0.1,0.2-0.2,0.2l0,0c-0.1,0-0.2-0.1-0.2-0.3C23.3,44.2,23.4,44.1,23.6,44.1
		C23.6,44.1,23.6,44.1,23.6,44.1 M22.7,45.4L22.7,45.4c-0.1,0-0.2-0.1-0.2-0.3c0-0.1,0.1-0.2,0.2-0.2c0,0,0,0,0,0
		c0.1,0,0.2,0.1,0.2,0.2c0,0,0,0,0,0C22.9,45.3,22.8,45.4,22.7,45.4 M22.7,44.1c0.1,0,0.2,0.1,0.2,0.3c0,0.1-0.1,0.2-0.2,0.2l0,0
		c-0.1,0-0.2-0.1-0.2-0.2c0,0,0,0,0,0C22.4,44.2,22.5,44.1,22.7,44.1 M21.7,45.3L21.7,45.3c-0.1,0-0.2-0.1-0.2-0.3
		c0-0.1,0.1-0.2,0.2-0.2c0,0,0,0,0,0c0.1,0,0.2,0.1,0.2,0.3C22,45.2,21.9,45.3,21.7,45.3C21.8,45.3,21.8,45.3,21.7,45.3 M21.8,44.1
		c0.1,0,0.2,0.1,0.2,0.3c0,0.1-0.1,0.2-0.2,0.2l0,0c-0.1,0-0.2-0.1-0.2-0.3C21.5,44.2,21.6,44.1,21.8,44.1 M20.9,45.3L20.9,45.3
		c-0.1,0-0.2-0.1-0.2-0.3c0-0.1,0.1-0.2,0.2-0.2c0.1,0,0.2,0.1,0.2,0.2C21.1,45.2,21,45.2,20.9,45.3 M20.9,44c0.1,0,0.2,0.1,0.2,0.2
		c0,0,0,0,0,0c0,0.1-0.1,0.2-0.2,0.2l0,0c-0.1,0-0.2-0.1-0.2-0.3C20.6,44.1,20.8,44,20.9,44C20.9,44,20.9,44,20.9,44 M20,45.2
		L20,45.2c-0.1,0-0.2-0.1-0.2-0.3c0-0.1,0.1-0.2,0.3-0.2c0,0,0,0,0,0c0.1,0,0.2,0.1,0.2,0.2C20.2,45.1,20.1,45.2,20,45.2 M20,43.9
		c0.1,0,0.2,0.1,0.2,0.3c0,0.1-0.1,0.2-0.2,0.2l0,0c-0.1,0-0.2-0.1-0.2-0.3C19.8,44,19.9,43.9,20,43.9 M19.1,45.1L19.1,45.1
		c-0.1,0-0.2-0.1-0.2-0.3c0-0.1,0.1-0.2,0.3-0.2c0.1,0,0.2,0.1,0.2,0.3c0,0,0,0,0,0C19.4,45,19.2,45.1,19.1,45.1 M18.8,44
		c0-0.1,0.1-0.2,0.3-0.2c0.1,0,0.2,0.1,0.2,0.3c0,0.1-0.1,0.2-0.2,0.2l0,0C18.9,44.3,18.8,44.2,18.8,44 M18.2,45L18.2,45
		c-0.1,0-0.2-0.1-0.2-0.3c0-0.1,0.1-0.2,0.3-0.2c0.1,0,0.2,0.1,0.2,0.3C18.4,45,18.3,45,18.2,45 M17.9,44c0-0.1,0.1-0.2,0.3-0.2
		c0.1,0,0.2,0.1,0.2,0.2c0,0,0,0,0,0c0,0.1-0.1,0.2-0.2,0.2l0,0C18,44.2,17.9,44.1,17.9,44 M17.3,44.9L17.3,44.9
		c-0.1,0-0.2-0.1-0.2-0.2c0,0,0,0,0,0c0-0.1,0.1-0.2,0.3-0.2c0.1,0,0.2,0.1,0.2,0.3c0,0,0,0,0,0C17.6,44.9,17.5,44.9,17.3,44.9
		 M16.4,43.9c0-0.1,0.2-0.2,0.3-0.2c0.1,0,0.2,0.1,0.2,0.2c0,0.1-0.1,0.2-0.2,0.2l0,0C16.5,44.1,16.4,44,16.4,43.9 M15.8,44.8
		L15.8,44.8c-0.1,0-0.2-0.1-0.2-0.3c0-0.1,0.1-0.2,0.3-0.2c0.1,0,0.2,0.1,0.2,0.3c0,0,0,0,0,0.1C16.1,44.7,16,44.8,15.8,44.8
		 M15.6,43.7c0-0.1,0.1-0.2,0.3-0.2c0.1,0,0.2,0.1,0.2,0.3c0,0.1-0.1,0.2-0.2,0.2l0,0C15.7,44,15.6,43.8,15.6,43.7 M14.7,43.5
		c0-0.1,0.2-0.2,0.3-0.2s0.2,0.2,0.2,0.3c0,0.1-0.1,0.2-0.2,0.2l0,0C14.8,43.8,14.7,43.7,14.7,43.5C14.7,43.5,14.7,43.5,14.7,43.5
		 M15,44.6L15,44.6c-0.1,0-0.2-0.1-0.2-0.3c0,0,0,0,0,0c0-0.1,0.2-0.2,0.3-0.2c0.1,0,0.2,0.2,0.2,0.3C15.3,44.5,15.2,44.6,15,44.6
		 M13.6,43.3c0-0.1,0.2-0.2,0.3-0.2c0.1,0,0.2,0.2,0.2,0.3c0,0.1-0.1,0.2-0.2,0.2l0,0C13.7,43.5,13.6,43.4,13.6,43.3
		C13.7,43.3,13.7,43.3,13.6,43.3 M14.2,44.2c0,0.1-0.1,0.2-0.2,0.2l0,0c-0.1,0-0.2-0.2-0.2-0.3c0-0.1,0.2-0.2,0.3-0.2
		S14.3,44.1,14.2,44.2C14.3,44.2,14.3,44.2,14.2,44.2 M12.7,43.1c0.1-0.1,0.2-0.2,0.3-0.1c0.1,0,0.2,0.1,0.1,0.2
		c0,0.1-0.1,0.2-0.2,0.2h-0.1C12.7,43.3,12.7,43.2,12.7,43.1 M13.2,44c0,0.1-0.1,0.2-0.2,0.2h0c-0.1-0.1-0.2-0.2-0.1-0.3
		c0-0.1,0.1-0.2,0.2-0.1C13.2,43.8,13.3,43.9,13.2,44 M12.4,43.8c0,0.1-0.1,0.2-0.2,0.2H12c-0.1,0-0.2-0.2-0.2-0.3c0,0,0,0,0,0
		c0-0.1,0.2-0.2,0.3-0.2C12.3,43.5,12.3,43.6,12.4,43.8C12.3,43.8,12.3,43.8,12.4,43.8 M11.7,42.8c0-0.1,0.2-0.2,0.3-0.2
		c0,0,0,0,0,0c0.1,0,0.2,0.2,0.2,0.3c0,0,0,0,0,0c0,0.1-0.1,0.2-0.2,0.2h0C11.8,43,11.7,42.9,11.7,42.8 M11.4,43.5
		c0,0.1-0.1,0.2-0.2,0.2h-0.1c-0.1,0-0.2-0.2-0.2-0.3c0-0.1,0.2-0.2,0.3-0.1C11.4,43.2,11.5,43.4,11.4,43.5
		C11.4,43.5,11.4,43.5,11.4,43.5 M10.9,42.5c0-0.1,0.2-0.2,0.3-0.1c0.1,0,0.2,0.2,0.2,0.3s-0.2,0.2-0.3,0.2l0,0H11
		C10.9,42.8,10.8,42.7,10.9,42.5C10.8,42.6,10.8,42.6,10.9,42.5 M10.5,43.2c0,0.1-0.1,0.2-0.2,0.2h-0.1c-0.1-0.1-0.2-0.2-0.1-0.3
		c0-0.1,0.2-0.2,0.3-0.1c0,0,0,0,0,0C10.5,43,10.5,43.1,10.5,43.2C10.5,43.2,10.5,43.2,10.5,43.2 M10,42.1c0.1-0.1,0.2-0.2,0.3-0.1
		c0.1,0,0.2,0.2,0.1,0.3c0,0,0,0,0,0c0,0.1-0.1,0.1-0.2,0.1h-0.1C10,42.4,9.9,42.3,10,42.1C10,42.2,10,42.2,10,42.1 M9.6,42.9
		c0,0.1-0.1,0.1-0.2,0.1H9.3c-0.1-0.1-0.2-0.2-0.1-0.3c0.1-0.1,0.2-0.2,0.3-0.1C9.6,42.6,9.7,42.8,9.6,42.9 M9.1,41.8
		c0.1-0.1,0.2-0.2,0.3-0.1c0.1,0.1,0.2,0.2,0.1,0.3c0,0.1-0.1,0.1-0.2,0.1H9.2C9.1,42.1,9.1,41.9,9.1,41.8 M8.8,42.5
		c0,0.1-0.1,0.1-0.2,0.1c0,0-0.1,0-0.1,0c-0.1-0.1-0.1-0.2-0.1-0.3c0.1-0.1,0.2-0.1,0.3-0.1l0,0C8.8,42.3,8.9,42.4,8.8,42.5
		 M8.4,41.2c0.1-0.1,0.2-0.2,0.3-0.1s0.2,0.2,0.1,0.3c0,0,0,0.1-0.1,0.1c0,0.1-0.1,0.1-0.2,0.1c0,0-0.1,0-0.1,0
		C8.3,41.5,8.3,41.3,8.4,41.2 M8,40.9L8,40.9c-0.2,0-0.3,0-0.3-0.1c-0.1-0.1,0-0.3,0.1-0.3c0,0,0,0,0,0c0.1-0.1,0.2,0,0.3,0.1
		c0,0,0,0,0,0l0,0C8.2,40.6,8.1,40.8,8,40.9C8,40.9,8,40.9,8,40.9 M8,41.9c0,0.1-0.1,0.1-0.2,0.1c-0.1,0-0.1,0-0.1-0.1
		c-0.1-0.1-0.1-0.2,0-0.3c0.1-0.1,0.2-0.1,0.3,0C8.1,41.6,8.1,41.8,8,41.9 M7.3,41.3c0,0-0.1,0-0.1,0C7,41.2,7,41.1,7,41
		c0,0,0-0.1,0.1-0.1c0.1-0.1,0.3,0,0.3,0.1C7.4,41.1,7.4,41.2,7.3,41.3 M11.2,44c4.5,1.4,9.3,2,14,1.9c4.7,0.1,9.5-0.6,14-1.9
		c3.3-1.1,5.3-2.6,5.3-3.9c0-1.3-2-2.8-5.3-3.9c-4.5-1.4-9.3-2-14-1.9c-4.7-0.1-9.5,0.6-14,1.9C7.9,37.4,6,38.9,6,40.2
		C6,41.5,8,42.9,11.2,44"/>
	<path class="st4" d="M39.2,44c-4.5,1.4-9.3,2-14,1.9c-4.7,0.1-9.5-0.6-14-1.9C7.9,42.9,6,41.5,6,40.2s2-2.8,5.3-3.9
		c4.5-1.4,9.3-2,14-1.9c4.7-0.1,9.5,0.6,14,1.9c3.3,1.1,5.3,2.5,5.3,3.9C44.5,41.5,42.5,42.9,39.2,44 M25.2,33.4
		C14,33.4,5,36.4,5,40.2c0,3.7,9,6.7,20.2,6.7s20.2-3,20.2-6.7C45.4,36.5,36.3,33.4,25.2,33.4"/>
</g>
</svg>
