<svg id="Layer_1" data-name="Layer 1" xmlns="http://www.w3.org/2000/svg" viewBox="0 0 40.38 32.33"><defs><style>.cls-1{fill:#173964;}.cls-2{fill:#75cddc;}</style></defs><title>echo</title><path class="cls-1" d="M20.19,14C9,14,0,11,0,7.31v6.3C0,17.09,9.25,20,20.19,20s20.19-2.94,20.19-6.42V7.31c0,3.71-9,6.73-20.19,6.73"/><path class="cls-1" d="M20.19,20.66c-9.73,0-17.91-2.27-20.19-5.32V25.6c0,3.72,9,6.73,20.19,6.73s20.19-3,20.19-6.73V15.34c-2.27,3.05-10.46,5.32-20.19,5.32"/><path class="cls-1" d="M30.29,8.25c1.73,0,2.84-.56,2.84-1S32,6.36,30.29,6.36s-2.84.56-2.84.94,1.1,1,2.84,1"/><path class="cls-1" d="M10.1,8.25c1.73,0,2.83-.56,2.83-1s-1.1-.94-2.83-.94-2.84.56-2.84.94,1.1,1,2.84,1"/><path class="cls-1" d="M1.66,7.33v0a.24.24,0,0,1,.47,0h0a.23.23,0,0,1-.23.24h0a.23.23,0,0,1-.23-.23m.3-1a.24.24,0,0,1,.4.26.26.26,0,0,1-.2.11.28.28,0,0,1-.12,0A.23.23,0,0,1,2,6.31m.68-.75a.23.23,0,1,1,.3.36A.22.22,0,0,1,2.79,6a.24.24,0,0,1-.15-.42M3.12,7a.24.24,0,0,1-.21.13.2.2,0,0,1-.11,0,.23.23,0,0,1-.11-.32A.24.24,0,0,1,3,6.65.24.24,0,0,1,3.12,7m.26-1a.25.25,0,0,1,.34,0,.24.24,0,0,1,0,.33.23.23,0,0,1-.15,0,.21.21,0,0,1-.18-.09.23.23,0,0,1,0-.33m.06-1a.23.23,0,0,1,.32.09.22.22,0,0,1-.08.32l-.12,0a.23.23,0,0,1-.2-.11A.24.24,0,0,1,3.44,5m.78.45a.24.24,0,0,1,.32.09.25.25,0,0,1-.1.33l-.11,0a.22.22,0,0,1-.21-.12.23.23,0,0,1,.1-.32m.07-.9a.25.25,0,0,1,.32.12A.23.23,0,0,1,4.5,5L4.4,5a.25.25,0,0,1-.22-.13.26.26,0,0,1,.11-.32M5.1,5a.24.24,0,0,1,.18.44l-.09,0A.25.25,0,0,1,5,5.33.24.24,0,0,1,5.1,5m.08-.86a.24.24,0,1,1,.17.45H5.27a.22.22,0,0,1-.22-.15.24.24,0,0,1,.13-.31M6,4.68a.23.23,0,0,1,.3.14.23.23,0,0,1-.14.3l-.08,0A.22.22,0,0,1,5.86,5,.23.23,0,0,1,6,4.68m.08-.84a.24.24,0,0,1,.15.45H6.16a.24.24,0,0,1-.23-.16.24.24,0,0,1,.15-.3m4,1.89c1.68,0,3.47.55,3.47,1.58S11.78,8.88,10.1,8.88,6.63,8.33,6.63,7.31,8.41,5.73,10.1,5.73M6.92,4.39a.23.23,0,0,1,.29.15.24.24,0,0,1-.16.3H7a.24.24,0,0,1-.23-.17.22.22,0,0,1,.16-.29M7,3.56a.25.25,0,0,1,.3.17A.24.24,0,0,1,7.12,4H7.06a.25.25,0,0,1-.23-.17A.25.25,0,0,1,7,3.56m.85.57A.24.24,0,1,1,8,4.59H7.9a.26.26,0,0,1-.23-.18.24.24,0,0,1,.17-.29m.08-.81a.23.23,0,0,1,.28.17A.24.24,0,0,1,8,3.78H8a.26.26,0,0,1-.23-.18.24.24,0,0,1,.18-.29m.86.59a.24.24,0,0,1,.28.18.23.23,0,0,1-.18.28H8.83a.24.24,0,0,1-.23-.19.23.23,0,0,1,.18-.28m.06-.81a.24.24,0,0,1,.28.18.23.23,0,0,1-.18.28h0a.23.23,0,0,1-.23-.18.25.25,0,0,1,.18-.29m.87.62A.23.23,0,0,1,10,3.9a.24.24,0,0,1-.18.28H9.76A.23.23,0,0,1,9.53,4a.22.22,0,0,1,.18-.27m.06-.81a.24.24,0,0,1,.28.19.24.24,0,0,1-.19.28h0a.24.24,0,0,1-.23-.19.24.24,0,0,1,.18-.28m.89.64a.22.22,0,0,1,.27.19.24.24,0,0,1-.19.27h0a.25.25,0,0,1-.24-.2.24.24,0,0,1,.2-.27m.05-.8a.23.23,0,1,1,.08.46h0a.23.23,0,0,1-.23-.2.23.23,0,0,1,.19-.27m.89.65a.24.24,0,0,1,.07.47h0a.25.25,0,0,1-.24-.2.24.24,0,0,1,.2-.27m.05-.8a.24.24,0,1,1,.07.47h0a.24.24,0,0,1,0-.47m.9.67a.24.24,0,0,1,.27.2.25.25,0,0,1-.21.27h0a.23.23,0,0,1-.23-.21.22.22,0,0,1,.2-.26m0-.8a.25.25,0,0,1,.27.21.24.24,0,0,1-.21.26h0a.22.22,0,0,1-.23-.2.24.24,0,0,1,.2-.27m.91.69a.24.24,0,1,1,.05.47h0a.24.24,0,0,1,0-.47m0-.8a.25.25,0,0,1,.26.21.25.25,0,0,1-.21.27h0a.26.26,0,0,1-.24-.22.26.26,0,0,1,.22-.26m.91.71a.23.23,0,0,1,.26.21.25.25,0,0,1-.22.26h0a.23.23,0,0,1-.23-.22.22.22,0,0,1,.21-.25m0-.8a.25.25,0,0,1,.26.22.24.24,0,0,1-.22.25h0a.24.24,0,0,1,0-.47M15.4,3a.24.24,0,1,1,0,.47h0a.22.22,0,0,1-.23-.22A.23.23,0,0,1,15.4,3m0-.8a.24.24,0,0,1,.25.22.24.24,0,0,1-.22.26h0a.24.24,0,0,1-.23-.22.24.24,0,0,1,.22-.26m.93.74a.23.23,0,0,1,.24.22.24.24,0,0,1-.22.25h0a.25.25,0,0,1-.24-.22.24.24,0,0,1,.23-.25m0-.8a.24.24,0,0,1,.25.22.23.23,0,0,1-.22.25h0a.24.24,0,0,1-.24-.22.24.24,0,0,1,.22-.25m.94.75a.22.22,0,0,1,.24.22.24.24,0,0,1-.22.25h0a.24.24,0,0,1-.24-.22.24.24,0,0,1,.23-.25m0-.8a.24.24,0,1,1,0,.48h0a.24.24,0,0,1-.24-.23.25.25,0,0,1,.23-.25m.94.77a.24.24,0,0,1,.25.23.24.24,0,0,1-.23.24h0A.24.24,0,0,1,18,3.09a.23.23,0,0,1,.23-.24m0-.8a.24.24,0,1,1,0,.47A.23.23,0,0,1,18,2.29a.23.23,0,0,1,.23-.24m.95.77a.24.24,0,0,1,.24.24.24.24,0,0,1-.24.24h0a.24.24,0,0,1,0-.48m0-.79a.24.24,0,1,1,0,.47h0a.24.24,0,1,1,0-.47m.94,0a.24.24,0,1,1-.23.24A.24.24,0,0,1,20.16,2m0,1.27a.23.23,0,0,1-.23-.24.23.23,0,0,1,.23-.23.24.24,0,1,1,0,.47M21.11,2a.24.24,0,1,1,0,.47h0a.24.24,0,0,1-.24-.24A.23.23,0,0,1,21.11,2m0,1.27h0a.23.23,0,0,1-.23-.24.24.24,0,1,1,.24.24m.93-1.25a.23.23,0,0,1,.23.24.23.23,0,0,1-.23.23h0a.23.23,0,0,1-.23-.24.23.23,0,0,1,.24-.23m0,1.27h0a.24.24,0,0,1-.23-.25.23.23,0,0,1,.24-.23.24.24,0,0,1,.23.25.24.24,0,0,1-.23.23M23,2.08a.25.25,0,0,1,.23.24.24.24,0,0,1-.24.23h0a.23.23,0,0,1-.23-.24A.24.24,0,0,1,23,2.08m0,1.27h0a.25.25,0,0,1-.23-.25A.23.23,0,0,1,23,2.88a.22.22,0,0,1,.22.24.23.23,0,0,1-.24.23M24,2.13h0a.24.24,0,0,1,.22.25.24.24,0,0,1-.24.22h0a.24.24,0,1,1,0-.47M24,3.4h0a.24.24,0,0,1-.22-.25A.24.24,0,0,1,24,2.92a.24.24,0,0,1,.22.25A.24.24,0,0,1,24,3.4m.93-1.21a.23.23,0,0,1,.21.25.23.23,0,0,1-.23.22h0a.24.24,0,0,1-.22-.25.24.24,0,0,1,.26-.22m0,1.27h0a.24.24,0,0,1-.22-.25A.24.24,0,0,1,24.94,3a.24.24,0,0,1,.22.26.24.24,0,0,1-.23.22m.92-1.2a.24.24,0,0,1,.21.26.23.23,0,0,1-.23.22h0a.24.24,0,0,1-.22-.26.25.25,0,0,1,.26-.22m0,1.27h0a.23.23,0,0,1-.22-.25.24.24,0,1,1,.47,0,.23.23,0,0,1-.24.21m.93-1.17a.24.24,0,0,1,0,.47h0a.25.25,0,0,1-.21-.26.24.24,0,0,1,.27-.21m.26,1.06a.25.25,0,0,1-.24.21h0a.22.22,0,0,1-.21-.25.24.24,0,0,1,.26-.22.25.25,0,0,1,.21.27m3.23,2.31c1.68,0,3.47.55,3.47,1.58S32,8.88,30.29,8.88s-3.47-.55-3.47-1.57,1.79-1.58,3.47-1.58M27.74,2.47a.22.22,0,0,1,.2.26.23.23,0,0,1-.23.21h0a.25.25,0,0,1-.21-.27.24.24,0,0,1,.27-.2M28,3.53a.24.24,0,0,1-.23.21h0a.24.24,0,0,1-.21-.27.24.24,0,0,1,.27-.2.23.23,0,0,1,.2.26m.68-.94a.24.24,0,0,1,0,.47h0a.24.24,0,0,1,.07-.47m.26,1.07a.23.23,0,0,1-.23.2h0a.24.24,0,0,1-.2-.27.23.23,0,0,1,.26-.2h0a.24.24,0,0,1,.2.27m.68-.92a.22.22,0,0,1,.19.27.23.23,0,0,1-.23.2h0a.25.25,0,0,1-.19-.28.23.23,0,0,1,.27-.19m.26,1.07a.23.23,0,0,1-.23.2h0a.24.24,0,0,1-.19-.27.24.24,0,0,1,.27-.2.22.22,0,0,1,.19.27m.68-.91a.24.24,0,0,1,.18.28.24.24,0,0,1-.23.19h0a.24.24,0,0,1-.19-.28.25.25,0,0,1,.28-.19M30.82,4a.23.23,0,0,1-.23.2h-.05a.23.23,0,0,1-.19-.27.24.24,0,0,1,.47.08m.93.2a.24.24,0,0,1-.23.19h-.05a.24.24,0,1,1,.28-.18m-.54-.91a.24.24,0,0,1,.46.1.24.24,0,0,1-.23.19h-.05a.24.24,0,0,1-.18-.29m1.46,1.14a.23.23,0,0,1-.22.18h-.06a.24.24,0,0,1,.11-.46.24.24,0,0,1,.17.29m-.54-.93a.22.22,0,0,1,.28-.17.23.23,0,0,1,.18.28.24.24,0,0,1-.23.18H32.3a.22.22,0,0,1-.17-.28m.92.23a.23.23,0,0,1,.45.13.23.23,0,0,1-.22.17h-.07a.22.22,0,0,1-.16-.29m.54,1a.25.25,0,0,1-.23.17H33.3a.24.24,0,0,1,.13-.46.24.24,0,0,1,.16.3M34,4a.23.23,0,0,1,.3-.15.22.22,0,0,1,.15.29.23.23,0,0,1-.22.17H34.1A.25.25,0,0,1,34,4m.54,1a.23.23,0,0,1-.22.15h-.08a.23.23,0,0,1-.14-.3.23.23,0,0,1,.44.16m.36-.69a.22.22,0,0,1,.3-.13.22.22,0,0,1,.14.3.22.22,0,0,1-.22.15H35a.24.24,0,0,1-.14-.31m.53,1a.24.24,0,0,1-.22.14l-.09,0A.23.23,0,1,1,35.25,5a.24.24,0,0,1,.13.31m.34-.69A.24.24,0,0,1,36,4.52a.22.22,0,0,1,.11.31.23.23,0,0,1-.21.14l-.1,0a.25.25,0,0,1-.12-.32m.51,1.11a.22.22,0,0,1-.21.12.2.2,0,0,1-.11,0,.24.24,0,1,1,.32-.1m.34-.69A.24.24,0,0,1,36.9,5a.24.24,0,0,1-.12.44.25.25,0,0,1-.12,0,.23.23,0,0,1-.09-.32M37,6.28a.25.25,0,0,1-.19.09.19.19,0,0,1-.14,0,.24.24,0,1,1,.33,0m.34.34a.24.24,0,0,1,.22.42.2.2,0,0,1-.11,0,.26.26,0,0,1-.21-.13.24.24,0,0,1,.1-.32m0-1.06a.23.23,0,0,1,.33,0,.24.24,0,0,1,0,.34.23.23,0,0,1-.18.08.3.3,0,0,1-.15-.05.24.24,0,0,1,0-.33m.69.64a.23.23,0,0,1,.33.06.24.24,0,0,1-.07.33.2.2,0,0,1-.13,0A.23.23,0,0,1,38,6.52a.22.22,0,0,1,.06-.32m.67,1.07h0v0h0a.24.24,0,0,1-.48,0h0v0h0a.24.24,0,0,1,.48,0m-.32,1a.21.21,0,0,1-.2.11.31.31,0,0,1-.13,0A.25.25,0,0,1,38,8.06.24.24,0,0,1,38.34,8a.23.23,0,0,1,.07.32m-.68.75a.2.2,0,0,1-.15.06A.23.23,0,0,1,37.4,9a.23.23,0,1,1,.36-.3.23.23,0,0,1,0,.33m-.46-1.43a.24.24,0,0,1,.32-.11.23.23,0,0,1,.11.31.24.24,0,0,1-.22.14.19.19,0,0,1-.1,0,.24.24,0,0,1-.11-.31m-.25,1a.3.3,0,0,1-.15,0,.25.25,0,0,1-.19-.09.24.24,0,0,1,0-.33.24.24,0,0,1,.34,0,.26.26,0,0,1,0,.34m-.09,1-.12,0a.25.25,0,0,1-.21-.12.24.24,0,0,1,.09-.32A.23.23,0,0,1,37,9.3a.24.24,0,0,1-.08.33m-.75-.46-.11,0a.25.25,0,0,1-.21-.12.23.23,0,0,1,.1-.32.24.24,0,0,1,.32.09.25.25,0,0,1-.1.33m-.11.91-.1,0a.23.23,0,0,1-.21-.14.22.22,0,0,1,.11-.31.24.24,0,0,1,.32.11.25.25,0,0,1-.12.32m-.77-.5-.09,0a.23.23,0,0,1-.09-.45.23.23,0,0,1,.31.12.24.24,0,0,1-.13.31m-.11.87-.09,0a.25.25,0,0,1-.22-.15A.24.24,0,0,1,35,10a.24.24,0,0,1,.17.44m-.79-.52h-.08a.22.22,0,0,1-.22-.16.23.23,0,0,1,.15-.3.24.24,0,0,1,.3.15.25.25,0,0,1-.15.3m-.11.84-.08,0a.23.23,0,0,1-.22-.17.22.22,0,0,1,.15-.29.23.23,0,0,1,.3.14.24.24,0,0,1-.15.3m-.81-.55h-.06a.23.23,0,0,1-.23-.17.23.23,0,1,1,.45-.13.23.23,0,0,1-.16.29m-.11.83h-.06a.25.25,0,0,1-.23-.17.24.24,0,0,1,.16-.29.23.23,0,0,1,.13.45m-.81-.58H32.5a.24.24,0,0,1-.23-.18.24.24,0,0,1,.46-.11.23.23,0,0,1-.17.28m-.11.83H32.4a.25.25,0,0,1-.24-.18.24.24,0,0,1,.18-.28.23.23,0,0,1,.28.17.24.24,0,0,1-.17.29m-.82-.6h-.06a.23.23,0,0,1-.23-.18.24.24,0,1,1,.29.18m-.11.81h-.05a.24.24,0,0,1-.23-.19.24.24,0,0,1,.18-.28.24.24,0,0,1,.29.18.25.25,0,0,1-.19.28m-.83-.62h-.05a.24.24,0,0,1,0-.47.22.22,0,0,1,.27.19.23.23,0,0,1-.18.27m-.1.81h0a.24.24,0,0,1-.24-.19.24.24,0,1,1,.47-.09.23.23,0,0,1-.19.28m-.84-.64H29.7a.24.24,0,0,1-.23-.19.25.25,0,0,1,.2-.28.24.24,0,0,1,.27.2.24.24,0,0,1-.19.27m-.1.81h0a.24.24,0,0,1,0-.47.23.23,0,0,1,.27.19.25.25,0,0,1-.2.28m-.85-.66h0a.24.24,0,1,1,.23-.27.24.24,0,0,1-.23.27m-.08.8h0a.24.24,0,0,1,0-.47.24.24,0,0,1,.27.21.23.23,0,0,1-.2.26m-.87-.67h0a.24.24,0,0,1-.23-.21.22.22,0,0,1,.21-.26.23.23,0,0,1,.26.2.24.24,0,0,1-.21.27m-.08.8h0a.24.24,0,0,1-.23-.2.25.25,0,0,1,.21-.27.24.24,0,0,1,.26.21.24.24,0,0,1-.21.26m-.87-.69h0a.25.25,0,0,1-.24-.21.24.24,0,0,1,.47-.05.23.23,0,0,1-.21.26m-.07.8h0a.24.24,0,0,1,0-.47A.23.23,0,0,1,27,12a.24.24,0,0,1-.21.26M26,11.54h0a.25.25,0,0,1-.24-.21.24.24,0,0,1,.48,0,.24.24,0,0,1-.22.25m-.06.8h0a.23.23,0,0,1-.23-.21.24.24,0,0,1,.22-.26.23.23,0,0,1,.25.21.23.23,0,0,1-.21.26M25,11.62h0a.23.23,0,0,1-.23-.22.23.23,0,0,1,.21-.25.24.24,0,0,1,.26.22.24.24,0,0,1-.22.25m-.06.8h0a.24.24,0,0,1-.23-.22.24.24,0,0,1,.22-.25.24.24,0,0,1,0,.47m-.89-.74h0a.22.22,0,0,1-.23-.22.24.24,0,0,1,.47,0,.23.23,0,0,1-.22.25m-.06.8h0a.24.24,0,0,1-.24-.22A.24.24,0,0,1,24,12a.24.24,0,0,1,.25.22.25.25,0,0,1-.23.25m-.9-.75h0a.23.23,0,0,1-.24-.22.22.22,0,0,1,.22-.25.23.23,0,0,1,.25.22.24.24,0,0,1-.23.25m0,.8h0a.24.24,0,0,1-.24-.23.23.23,0,0,1,.23-.24.22.22,0,0,1,.24.22.24.24,0,0,1-.22.25m-.91-.77h0a.22.22,0,0,1-.23-.22.24.24,0,1,1,.24.22m0,.8h0a.24.24,0,0,1-.24-.23.23.23,0,0,1,.23-.24.25.25,0,0,1,.25.23.23.23,0,0,1-.23.24m-.91-.77h0a.23.23,0,0,1-.23-.24.23.23,0,0,1,.23-.24.24.24,0,0,1,.24.24.24.24,0,0,1-.23.24m0,.79h0a.24.24,0,0,1,0-.47h0a.24.24,0,1,1,0,.47m-.92-.79h0a.23.23,0,0,1-.23-.23.23.23,0,0,1,.23-.24h0a.24.24,0,1,1,0,.47m0,.8a.24.24,0,0,1-.24-.24.24.24,0,0,1,.48,0,.24.24,0,0,1-.24.24m-.94,0h0a.24.24,0,1,1,.24-.23.24.24,0,0,1-.23.24m0-1.28a.24.24,0,1,1,0,.48h0a.25.25,0,0,1-.24-.24.24.24,0,0,1,.24-.24m-.93,1.25h0a.22.22,0,0,1-.23-.24.23.23,0,0,1,.24-.23.24.24,0,0,1,.23.24.23.23,0,0,1-.24.23m0-1.27a.24.24,0,0,1,0,.48h0a.25.25,0,0,1-.23-.25.24.24,0,0,1,.25-.23m-.93,1.24h0a.25.25,0,0,1-.23-.25.23.23,0,0,1,.25-.22.22.22,0,0,1,.22.24.23.23,0,0,1-.23.23m0-1.27a.25.25,0,0,1,.23.25.24.24,0,0,1-.24.22h0a.23.23,0,0,1-.23-.24.25.25,0,0,1,.25-.23m-.93,1.22h0a.24.24,0,0,1-.22-.25.23.23,0,0,1,.25-.22.24.24,0,0,1,.22.25.23.23,0,0,1-.24.22m0-1.27a.24.24,0,0,1,.22.25.23.23,0,0,1-.23.23h0a.24.24,0,0,1-.22-.25.25.25,0,0,1,.25-.23m-.92,1.21h0a.24.24,0,0,1-.22-.25.24.24,0,0,1,.48,0,.24.24,0,0,1-.24.22m0-1.27a.23.23,0,0,1,.21.25.24.24,0,0,1-.23.23h0a.24.24,0,0,1-.22-.25.24.24,0,0,1,.26-.22m-.92,1.2h0a.24.24,0,0,1-.22-.25.24.24,0,0,1,.26-.22.24.24,0,0,1,0,.48m0-1.27a.24.24,0,0,1,.22.25.24.24,0,0,1-.24.22h0a.25.25,0,0,1-.22-.26.24.24,0,0,1,.26-.21m-.91,1.17h0a.24.24,0,1,1,.26-.21.24.24,0,0,1-.26.21m-.29-1.06a.24.24,0,0,1,.26-.21.24.24,0,0,1,.21.26.25.25,0,0,1-.24.22h0a.24.24,0,0,1-.21-.26m-.65,1h0a.24.24,0,0,1-.21-.26.25.25,0,0,1,.27-.21.24.24,0,0,1,.2.27.23.23,0,0,1-.23.2m-.3-1.06a.24.24,0,0,1,.27-.2.22.22,0,0,1,.2.26.23.23,0,0,1-.23.2h0a.24.24,0,0,1-.21-.26m-.64.94h0a.22.22,0,0,1-.2-.26.24.24,0,0,1,.27-.2.23.23,0,0,1,.19.27.24.24,0,0,1-.23.2M11.42,11a.24.24,0,0,1,.47.07.25.25,0,0,1-.24.2h0a.24.24,0,0,1-.2-.27m-.63.92h0a.24.24,0,0,1-.2-.27.24.24,0,1,1,.47.08.24.24,0,0,1-.23.19m-.31-1.07a.24.24,0,0,1,.27-.2.25.25,0,0,1,.2.28.24.24,0,0,1-.24.19h0a.24.24,0,0,1-.2-.27m-.93-.18a.23.23,0,1,1,.23.28h0a.23.23,0,0,1-.18-.28m.31,1.09h0a.23.23,0,0,1-.19-.27.25.25,0,0,1,.28-.19.24.24,0,0,1,.19.28.24.24,0,0,1-.23.19M8.62,10.42a.25.25,0,0,1,.28-.18.24.24,0,0,1,.18.28.25.25,0,0,1-.23.19h0a.23.23,0,0,1-.18-.28m.54.92a.23.23,0,0,1-.23.18h0a.24.24,0,1,1,.28-.18M7.69,10.2a.24.24,0,0,1,.46.11.23.23,0,0,1-.23.18H7.86a.24.24,0,0,1-.17-.28m.55.93a.26.26,0,0,1-.23.18H8a.24.24,0,0,1,.11-.46.25.25,0,0,1,.18.29m-.92-.24a.23.23,0,0,1-.23.18H7a.23.23,0,0,1-.16-.29.24.24,0,0,1,.29-.17.23.23,0,0,1,.16.29m-.55-1a.24.24,0,0,1,.3-.16.23.23,0,0,1,.16.29.24.24,0,0,1-.23.17H6.93a.25.25,0,0,1-.16-.29m-.36.69a.22.22,0,0,1-.22.16H6.11a.25.25,0,0,1-.15-.3.24.24,0,0,1,.3-.15.23.23,0,0,1,.15.3m-.54-1a.25.25,0,0,1,.3-.15A.24.24,0,0,1,6.1,10H6a.23.23,0,0,1-.15-.3m-.35.68a.23.23,0,0,1-.22.16l-.09,0a.24.24,0,0,1-.13-.31.22.22,0,0,1,.3-.13.22.22,0,0,1,.14.3M5,9.29a.24.24,0,0,1,.31-.13.23.23,0,0,1,.12.31.23.23,0,0,1-.21.15l-.1,0A.23.23,0,0,1,5,9.29M4.64,10a.23.23,0,0,1-.21.14l-.1,0a.24.24,0,0,1-.11-.32.23.23,0,0,1,.42.2m-.5-1.11a.24.24,0,0,1,.32-.1.26.26,0,0,1,.1.33.25.25,0,0,1-.22.12l-.11,0a.24.24,0,0,1-.09-.32m-.34.69a.25.25,0,0,1-.21.12.19.19,0,0,1-.12,0,.23.23,0,1,1,.24-.4.24.24,0,0,1,.09.32M3.36,8.32a.24.24,0,1,1,.37.29.22.22,0,0,1-.19.09.19.19,0,0,1-.14,0,.24.24,0,0,1,0-.33M3,8l-.1,0a.24.24,0,0,1-.22-.13.23.23,0,0,1,.11-.31.22.22,0,0,1,.31.1h0A.24.24,0,0,1,3,8M3,9a.24.24,0,0,1-.18.09.2.2,0,0,1-.15-.06.24.24,0,0,1,0-.33.25.25,0,0,1,.34,0A.24.24,0,0,1,3,9M2.31,8.4a.22.22,0,0,1-.13,0A.24.24,0,0,1,2.05,8a.24.24,0,0,1,.26.4m3.9,2.77a46.05,46.05,0,0,0,14,1.92,46,46,0,0,0,14-1.92c3.3-1.1,5.27-2.55,5.27-3.86s-2-2.77-5.27-3.87a46,46,0,0,0-14-1.92,46.05,46.05,0,0,0-14,1.92C2.92,4.54,1,6,1,7.31s2,2.76,5.26,3.86"/><path class="cls-2" d="M34.17,11.17a46,46,0,0,1-14,1.92,46.05,46.05,0,0,1-14-1.92C2.92,10.07,1,8.62,1,7.3s2-2.76,5.26-3.86a46.05,46.05,0,0,1,14-1.92,46,46,0,0,1,14,1.92c3.3,1.1,5.27,2.55,5.27,3.86s-2,2.77-5.27,3.87M20.19.57C9,.57,0,3.59,0,7.3S9,14,20.19,14,40.38,11,40.38,7.3,31.34.57,20.19.57"/></svg>